<?xml version="1.0" encoding="UTF-8" standalone="no"?>
<!-- Created with Inkscape (http://www.inkscape.org/) -->

<svg
   xmlns:dc="http://purl.org/dc/elements/1.1/"
   xmlns:cc="http://creativecommons.org/ns#"
   xmlns:rdf="http://www.w3.org/1999/02/22-rdf-syntax-ns#"
   xmlns:svg="http://www.w3.org/2000/svg"
   xmlns="http://www.w3.org/2000/svg"
   xmlns:sodipodi="http://sodipodi.sourceforge.net/DTD/sodipodi-0.dtd"
   xmlns:inkscape="http://www.inkscape.org/namespaces/inkscape"
   width="3240"
   height="1620"
   id="svg2"
   version="1.1"
   inkscape:version="0.48.5 r10040"
   sodipodi:docname="expert_sleepers_fat_notagline.svg"
   inkscape:export-filename="/Users/os/Pictures/images/expert sleepers/expert_sleepers_zzz_orangetag.png"
   inkscape:export-xdpi="90"
   inkscape:export-ydpi="90">
  <defs
     id="defs4" />
  <sodipodi:namedview
     id="base"
     pagecolor="#ff8d00"
     bordercolor="#666666"
     borderopacity="1.0"
     inkscape:pageopacity="0"
     inkscape:pageshadow="2"
     inkscape:zoom="0.2527252"
     inkscape:cx="1071.4598"
     inkscape:cy="701.43503"
     inkscape:document-units="in"
     inkscape:current-layer="layer1"
     showgrid="false"
     inkscape:window-width="1570"
     inkscape:window-height="911"
     inkscape:window-x="0"
     inkscape:window-y="0"
     inkscape:window-maximized="0"
     units="in"
     fit-margin-top="0"
     fit-margin-left="0"
     fit-margin-right="0"
     fit-margin-bottom="0" />
  <metadata
     id="metadata7">
    <rdf:RDF>
      <cc:Work
         rdf:about="">
        <dc:format>image/svg+xml</dc:format>
        <dc:type
           rdf:resource="http://purl.org/dc/dcmitype/StillImage" />
        <dc:title />
      </cc:Work>
    </rdf:RDF>
  </metadata>
  <g
     inkscape:label="Layer 1"
     inkscape:groupmode="layer"
     id="layer1"
     transform="translate(0,567.64063)">
    <rect
       style="fill:#ff8c00;fill-opacity:1;fill-rule:nonzero;stroke:none"
       id="rect4440"
       width="3240"
       height="1620"
       x="0"
       y="-567.64062" />
    <path
       inkscape:connector-curvature="0"
       style="fill:#ffffff;fill-opacity:1"
       d="m 121.69338,569.43875 c -0.90463,-1.46336 34.63181,-55.99653 78.96907,-121.18559 44.33725,-65.18869 80.61324,-119.96769 80.61324,-121.7313 0,-2.00046 -27.64072,-3.53212 -73.52244,-4.07409 l -73.52242,-0.86965 0,-38.78108 0,-38.78093 122.76399,-1.61592 122.764,-1.6158 41.04278,-59.78748 c 22.57355,-32.88329 41.13498,-61.57798 41.24759,-63.7665 0.15506,-3.01611 -17.58592,-4.18937 -73.31773,-4.84753 l -73.52241,-0.86965 0,-38.78107 0,-38.781071 119.2924,-0.84907 c 83.27731,-0.59177 120.63036,-1.95863 123.72398,-4.52602 6.15954,-5.11203 78.54316,-111.74306 78.54316,-115.70485 0,-2.02142 -27.39142,-3.54549 -73.52234,-4.09044 l -73.52242,-0.86965 0,-38.781069 0,-38.78107 157.54798,-0.84006 c 106.32464,-0.56605 157.54811,0.24313 157.54811,2.48494 0,1.82779 -35.72795,55.94389 -79.39538,120.257369 -43.6674,64.31375 -79.66105,118.458667 -79.98597,120.321857 -0.393,2.252853 26.47903,3.92911 80.20336,5.003694 l 80.79381,1.615795 0,38.781085 0,38.78107 -129.1719,1.61592 -129.17194,1.61579 -39.4926,58.17155 c -21.72093,31.99448 -38.44334,59.23598 -37.1609,60.53633 1.28247,1.30087 37.91568,2.75509 81.40716,3.23185 l 79.07545,0.86708 0,38.78093 0,38.78106 -129.71518,0.84394 -129.7152,0.84392 -41.00948,60.49964 c -22.55514,33.27514 -41.26063,61.98088 -41.56775,63.79107 -0.36019,2.12509 28.06259,3.86324 80.23553,4.90669 l 80.79379,1.61581 0,38.78118 0,38.78108 -163.80256,0.83748 c -90.09137,0.46056 -164.54242,-0.3602 -165.44678,-1.82278 z"
       id="path3964" />
    <g
       id="g3120"
       transform="matrix(1.5860011,0,0,1.5860011,-42.939198,448.10669)">
      <path
         inkscape:connector-curvature="0"
         d="m 1294.2904,164.9844 c -0.4941,-2.04268 -0.6943,-56.45314 -0.4442,-120.912143 l 0.4554,-117.198098 24.7601,0 24.7602,0 0.4836,11.908998 0.4836,11.908866 10.2455,-10.416299 c 13.8551,-14.086116 24.0915,-18.147883 45.7352,-18.147883 19.6909,0 30.853,3.98226 43.4612,15.505418 17.2105,15.729549 25.8673,39.861302 25.8673,72.1084381 0,36.5502599 -9.2813,62.7890799 -28.6033,80.8638299 -14.3955,13.466423 -26.0047,17.843133 -47.3278,17.843133 -17.6415,0 -26.7107,-2.62854 -40.4417,-11.720943 l -8.2534,-5.46537 -0.9021,38.305463 c -0.4961,21.0679 -1.0533,38.49096 -1.238,38.71798 -0.1846,0.22669 -11.0924,0.4133 -24.2391,0.4133 -23.422,0 -23.9217,-0.0743 -24.8026,-3.71403 z m 99.9782,-93.789073 c 13.7886,-6.89052 21.8317,-27.34832 22.0206,-56.00988 0.2385,-36.19227 -9.9139,-52.8217 -32.2482,-52.8217 -11.4555,0 -20.4725,4.555895 -30.9559,15.640449 l -8.4381,8.922151 0,35.41731 0,35.41738 5.7996,5.09214 c 14.5245,12.75269 29.3492,15.5748 43.822,8.34215 z M 637.33167,109.82177 c -16.1383,-1.98249 -36.5096,-5.94215 -38.3259,-7.44937 -2.6758,-2.22081 -3.037,-40.385783 -0.391,-41.267853 0.9489,-0.31672 10.1489,2.18428 20.4445,5.55676 41.6946,13.6579 72.3125,10.26254 81.6646,-9.05613 9.2724,-19.15414 1.1116,-32.19622 -31.7989,-50.8198999 -40.7249,-23.0455901 -58.431,-37.7902341 -66.7859,-55.6162771 -3.9197,-8.362976 -4.4241,-11.418024 -4.4241,-26.805429 0,-16.193517 0.3555,-18.089534 5.268,-28.061641 12.6007,-25.58063 37.3559,-37.94229 75.941,-37.92107 17.2482,0.0197 43.6345,3.09566 56.8179,6.64556 l 6.4075,1.72531 0,18.82165 c 0,10.60403 -0.7115,19.261445 -1.6295,19.828969 -0.8962,0.553922 -8.7527,-1.274809 -17.4586,-4.063607 -18.6562,-5.975982 -37.9901,-8.983132 -47.5375,-7.393912 -21.3267,3.54997 -31.93,18.53307 -24.2877,34.320048 4.1139,8.497875 12.7847,14.991446 42.2182,31.617062 48.9507,27.649977 63.3884,44.3979471 64.891,75.273877 1.8715,38.45698 -20.5382,64.58818 -62.7579,73.179823 -11.6863,2.37819 -44.2359,3.20841 -58.2561,1.48613 z m 325.1835,-2.90576 c -15.9769,-3.75695 -23.6849,-7.077463 -34.7381,-14.964703 -24.5969,-17.55217 -35.8679,-41.90208 -35.9144,-77.5907 -0.039,-30.38371 7.7851,-51.365993 25.8753,-69.386138 11.6096,-11.564423 23.4121,-17.895628 39.8538,-21.378438 14.5121,-3.073841 26.6012,-3.094671 40.8757,-0.06965 27.27033,5.778466 42.84463,22.12206 50.82843,53.338497 4.2306,16.5415691 6.0928,43.891459 3.2238,47.348519 -1.803,2.17258 -9.4823,2.52734 -54.71713,2.52734 -60.2003,0 -55.5987,-1.4835 -49.1189,15.83547 4.0451,10.81127 12.6,21.01376 21.3733,25.48955 14.3631,7.32755 40.68573,7.3123 67.13043,-0.0328 17.9949,-5.00206 16.9404,-5.81947 16.9404,13.12789 0,15.09342 -0.2898,16.6038 -3.5156,18.33022 -13.4417,7.193633 -69.12983,11.890933 -88.09703,7.430843 z m 41.03223,-118.140953 c -0.7684,-24.307588 -13.69873,-37.527338 -33.13823,-33.880322 -8.9328,1.675762 -19.2007,12.53901 -22.5675,23.875882 -2.8447,9.57957 -3.3559,15.3597401 -1.5205,17.1949801 0.6262,0.62555 13.8107,0.93543 29.2995,0.68784 l 28.16143,-0.45076 z m 152.097,118.140953 c -15.9769,-3.75695 -23.6849,-7.077463 -34.738,-14.964703 -24.597,-17.55217 -35.8679,-41.90208 -35.9145,-77.5907 -0.039,-30.38371 7.7851,-51.365993 25.8754,-69.386138 11.6096,-11.564423 23.412,-17.895628 39.8537,-21.378438 14.5122,-3.073841 26.6012,-3.094671 40.8759,-0.06965 27.2701,5.778466 42.8444,22.12206 50.8283,53.338497 4.2307,16.5415691 6.0928,43.891459 3.2238,47.348519 -1.8031,2.17258 -9.4824,2.52734 -54.7171,2.52734 -60.2003,0 -55.5987,-1.4835 -49.1188,15.83547 4.045,10.81127 12.5999,21.01376 21.3733,25.48955 14.363,7.32755 40.6855,7.3123 67.1302,-0.0328 17.9951,-5.00206 16.9404,-5.81947 16.9404,13.12789 0,15.09342 -0.2898,16.6038 -3.5156,18.33022 -13.4417,7.193633 -69.1297,11.890933 -88.097,7.430843 z m 41.0322,-118.140953 c -0.7684,-24.307588 -13.6986,-37.527338 -33.1382,-33.880322 -8.9328,1.675762 -19.2007,12.53901 -22.5673,23.875882 -2.8449,9.57957 -3.356,15.3597401 -1.5207,17.1949801 0.6262,0.62555 13.8107,0.93543 29.2996,0.68784 l 28.1613,-0.45076 z m 371.6371,118.140953 c -15.9769,-3.75695 -23.6849,-7.077463 -34.738,-14.964703 -24.5968,-17.55217 -35.8679,-41.90208 -35.9144,-77.5907 -0.04,-30.38371 7.7851,-51.365993 25.8753,-69.386138 11.6096,-11.564423 23.4121,-17.895628 39.8539,-21.378438 14.5121,-3.073841 26.6011,-3.094671 40.8757,-0.06965 27.2702,5.778466 42.8444,22.12206 50.8283,53.338497 4.2307,16.5415691 6.0929,43.891459 3.2238,47.348519 -1.8031,2.17258 -9.4824,2.52734 -54.717,2.52734 -60.2004,0 -55.5988,-1.4835 -49.1189,15.83547 4.045,10.81127 12.6,21.01376 21.3733,25.48955 14.3631,7.32755 40.6856,7.3123 67.1303,-0.0328 17.995,-5.00206 16.9404,-5.81947 16.9404,13.12789 0,15.09342 -0.2898,16.6038 -3.5157,18.33022 -13.4416,7.193633 -69.1297,11.890933 -88.097,7.430843 z m 41.0323,-118.140953 c -0.7684,-24.307588 -13.6987,-37.527338 -33.1382,-33.880322 -8.9329,1.675762 -19.2007,12.53901 -22.5674,23.875882 -2.8448,9.57957 -3.3559,15.3597401 -1.5206,17.1949801 0.6262,0.62555 13.8107,0.93543 29.2995,0.68784 l 28.1614,-0.45076 z m 279.1992,118.688963 c -13.5616,-1.92782 -32.5725,-6.54607 -35.0769,-8.521273 -3.1165,-2.45782 -2.8669,-34.03191 0.2786,-35.23884 1.288,-0.49413 7.776,1.06138 14.4176,3.45725 26.1065,9.4172 50.8005,11.70372 63.6065,5.88971 5.6362,-2.55889 7.2788,-4.36534 8.9049,-9.79293 1.6937,-5.65329 1.5903,-7.27162 -0.6869,-10.74707 -4.285,-6.53963 -13.1057,-12.39235 -26.3808,-17.50414 -30.3686,-11.69393 -47.4155,-22.79505 -55.0755,-35.86576987 -3.5861,-6.11916003 -4.5836,-10.21536013 -5.1595,-21.18735713 -0.6236,-11.884619 -0.1972,-14.730846 3.3811,-22.546142 4.969,-10.853852 13.7689,-19.716869 25.0633,-25.242686 9.9416,-4.86387 30.3061,-9.067502 43.9286,-9.067502 12.4585,0 47.283,4.554383 51.3122,6.710672 2.6983,1.444008 3.0993,3.688609 3.0993,17.334083 0,12.428752 -0.5145,15.872465 -2.4821,16.627784 -1.3657,0.524353 -8.6081,-0.75867 -16.0944,-2.850038 -18.6177,-5.200955 -42.4268,-5.480281 -50.7428,-0.595319 -7.261,4.265529 -9.5464,10.160496 -6.6498,17.153517 2.6187,6.321608 10.1066,10.833938 33.0515,19.9168881 25.1329,9.94918 35.4792,15.9375099 44.3997,25.6979099 9.6296,10.53615 12.4843,19.36829 11.3567,35.1322 -2.7858,38.93488 -45.0742,59.679433 -104.4514,51.238853 z M 801.76587,103.72324 c -1.3562,-1.63417 -1.7481,-36.557553 -1.4402,-128.34022 l 0.4232,-126.09489 24.7602,0 24.7601,0 0.4231,126.095285 c 0.3076,91.782602 -0.084,126.705985 -1.4402,128.340155 -1.3994,1.68614 -7.3087,2.24486 -23.743,2.24486 -16.4344,0 -22.3436,-0.55852 -23.743,-2.24486 z m 906.21753,0 c -1.3498,-1.62642 -1.749,-26.452913 -1.4401,-89.549243 l 0.4278,-87.29905 24.7601,0 24.7602,0 0.4902,12.210206 0.4895,12.210336 8.2471,-9.253128 c 12.9626,-14.543643 37.0229,-23.987852 51.7171,-20.2999 l 4.2577,1.068682 0,21.329814 c 0,11.731651 -0.5572,21.663021 -1.238,22.070282 -0.6809,0.407393 -5.1538,-0.07097 -9.9397,-1.061191 -17.0724,-3.534326 -36.0068,4.067221 -48.106,19.312889 l -5.0927,6.4170201 0,55.5659499 c 0,41.01699 -0.5191,56.084523 -1.9808,57.546733 -2.9752,2.97515 -44.8572,2.73682 -47.3521,-0.2694 z"
         style="fill:#ffffff;fill-opacity:1"
         id="path3078" />
      <path
         inkscape:connector-curvature="0"
         d="m 990.64887,-126.33537 c -0.49413,-2.04274 -0.69434,-56.4532 -0.44419,-120.91213 l 0.45536,-117.19817 24.76026,0 24.7601,0 0.4836,11.909 0.4837,11.90887 10.2455,-10.41624 c 13.8551,-14.08611 24.0915,-18.14795 45.7352,-18.14795 19.6909,0 30.8529,3.98233 43.4612,15.50549 17.2104,15.72948 25.8673,39.86123 25.8673,72.10837 0,36.55026 -9.2813,62.78908 -28.6034,80.86383 -14.3955,13.46649 -26.0047,17.8432 -47.3279,17.8432 -17.6414,0 -26.7106,-2.62854 -40.4416,-11.72094 l -8.2534,-5.46544 -0.902,38.30546 c -0.4961,21.0679 -1.0533,38.49102 -1.238,38.71798 -0.1847,0.22669 -11.0925,0.4133 -24.2394,0.4133 -23.4218,0 -23.92151,-0.0743 -24.80246,-3.71403 z m 99.97823,-93.78907 c 13.7886,-6.89051 21.8317,-27.34838 22.0205,-56.00994 0.2386,-36.19227 -9.9137,-52.8217 -32.2481,-52.8217 -11.4555,0 -20.4724,4.5559 -30.956,15.64052 l -8.438,8.92208 0,35.41731 0,35.41744 5.7997,5.09214 c 14.5244,12.75263 29.3491,15.57474 43.8219,8.34215 z m 172.3945,35.7197 c -15.9769,-3.75695 -23.6849,-7.07739 -34.7381,-14.9647 -24.5969,-17.55217 -35.8679,-41.90214 -35.9144,-77.59076 -0.039,-30.38372 7.7851,-51.36593 25.8754,-69.38608 11.6095,-11.56442 23.4121,-17.89563 39.8538,-21.37837 14.5121,-3.07391 26.6011,-3.09474 40.8757,-0.0697 27.2702,5.77853 42.8444,22.12206 50.8283,53.3385 4.2307,16.54164 6.0928,43.89153 3.2238,47.34851 -1.803,2.17265 -9.4824,2.52741 -54.717,2.52741 -60.2004,0 -55.5988,-1.48343 -49.1189,15.83541 4.045,10.81134 12.6,21.01382 21.3733,25.48962 14.3631,7.32747 40.6855,7.31236 67.1303,-0.0329 17.995,-5.00205 16.9403,-5.81947 16.9403,13.12782 0,15.0935 -0.2897,16.60387 -3.5156,18.33029 -13.4416,7.1937 -69.1296,11.891 -88.0969,7.43084 z m 41.0322,-118.14095 c -0.7684,-24.30752 -13.6987,-37.52734 -33.1382,-33.88032 -8.9328,1.67576 -19.2007,12.53907 -22.5675,23.87588 -2.8446,9.57957 -3.3559,15.35974 -1.5205,17.19492 0.6256,0.6262 13.8108,0.93549 29.2995,0.68783 l 28.1614,-0.4501 z m 289.2694,117.86806 c -12.0453,-2.91443 -18.854,-7.03165 -27.077,-16.37369 -11.4548,-13.01309 -12.2712,-17.79713 -13.377,-78.38491 l -0.9792,-53.647 -8.2215,-0.51909 c -4.5216,-0.28452 -8.7814,-1.3994 -9.4661,-2.47603 -0.6845,-1.07657 -1.2446,-7.15696 -1.2446,-13.51208 0,-6.35513 0.5599,-12.43559 1.2446,-13.51209 0.6847,-1.07657 4.9445,-2.19085 9.4661,-2.47603 l 8.2215,-0.51909 0.8254,-13.68267 c 0.8574,-14.21313 2.1876,-16.6908 9.0787,-16.90882 1.8157,-0.0591 11.3113,-1.04358 21.1012,-2.19131 13.0809,-1.53357 18.2054,-1.59829 19.3294,-0.24378 0.841,1.01356 1.7448,8.85921 2.0082,17.43482 l 0.479,15.59215 18.1575,0.8253 18.1574,0.8253 0,14.85615 0,14.85609 -18.1574,0.82536 -18.1575,0.8253 0,49.52037 c 0,44.26962 0.3102,50.08751 2.923,54.86944 4.7551,8.7019 10.0918,11.15769 24.247,11.15769 l 12.4462,0 0.4731,14.19099 c 0.5448,16.32552 0.2642,16.76031 -12.5218,19.45502 -11.5457,2.43325 -26.93,2.12218 -38.9562,-0.78785 z m -994.36918,-2.65068 c -2.86582,-2.86587 -2.86582,-235.822 0,-238.68794 2.84949,-2.84938 145.05119,-2.84938 147.90063,0 1.25339,1.25339 1.98085,7.55384 1.98085,17.15549 0,12.31455 -0.49216,15.36355 -2.61099,16.17663 -1.43606,0.55129 -23.72022,1.00199 -49.52031,1.00199 l -46.90928,0 0,31.3629 0,31.36283 37.83054,0 c 20.80677,0 39.00552,0.45076 40.44164,1.00199 3.85827,1.48041 3.85827,32.83043 0,34.31091 -1.43612,0.55129 -19.63487,1.00199 -40.44164,1.00199 l -37.83054,0 0,34.66422 0,34.66423 51.66617,0 c 37.98395,0 52.19077,0.52501 53.647,1.98084 1.25044,1.25037 1.98078,7.51981 1.98078,17.002 0,9.48212 -0.73034,15.75156 -1.98078,17.00192 -2.85174,2.85175 -153.3023,2.85175 -156.15407,0 z m 180.22097,-0.41593 c -1.15167,-3.0013 -3.40856,0.63803 29.5096,-47.58723 l 27.92168,-40.90522 -28.24799,-42.95275 c -15.53643,-23.62422 -27.81294,-43.65688 -27.28123,-44.51734 0.54604,-0.88279 12.78963,-1.56438 28.09996,-1.56438 l 27.13311,0 17.5981,26.41085 c 9.67899,14.52597 18.07626,26.41091 18.66074,26.41091 0.58415,0 8.71649,-11.88494 18.0712,-26.41091 l 17.00863,-26.41085 19.63401,0 c 16.66333,0 19.63395,0.38833 19.63395,2.56769 0,1.41214 -11.59787,20.73364 -25.77302,42.93672 -15.92438,24.94292 -25.4795,41.4655 -25.00489,43.23871 0.42251,1.57819 13.13453,21.65967 28.24898,44.62556 15.11452,22.96589 27.48098,42.3849 27.48098,43.15362 0,0.76873 -1.17494,1.84865 -2.61106,2.39961 -3.4466,1.32271 -47.52225,1.29643 -50.9795,-0.0263 -1.47936,-0.56772 -10.87461,-13.19531 -20.87833,-28.06145 -10.00378,-14.86621 -18.79452,-27.02943 -19.53518,-27.02943 -0.74054,0 -9.28283,11.50995 -18.98278,25.57747 -9.69994,14.06759 -18.75417,26.69524 -20.12038,28.06151 -3.54931,3.54944 -38.22878,3.62573 -39.58658,0.0881 z m 623.51621,0.14719 c -1.3499,-1.62642 -1.7489,-26.45291 -1.4401,-89.54924 l 0.4278,-87.29905 24.76,0 24.7602,0 0.4902,12.21021 0.4901,12.21033 8.2472,-9.25313 c 12.9626,-14.54364 37.0229,-23.98785 51.717,-20.2999 l 4.2578,1.06869 0,21.32981 c 0,11.73165 -0.5566,21.66302 -1.238,22.07028 -0.6809,0.4074 -5.1538,-0.071 -9.9397,-1.06119 -17.0725,-3.53432 -36.0068,4.06722 -48.1061,19.31289 l -5.0926,6.41702 0,55.56595 c 0,41.01699 -0.5191,56.08452 -1.9808,57.54673 -2.9752,2.97515 -44.8571,2.73682 -47.3521,-0.2694 z"
         style="fill:#ffffff;fill-opacity:1"
         id="path3149" />
    </g>
  </g>
</svg>
